<?xml version="1.0" encoding="UTF-8" standalone="no"?>
<!-- Created with Inkscape (http://www.inkscape.org/) -->
<svg
   xmlns:dc="http://purl.org/dc/elements/1.1/"
   xmlns:cc="http://web.resource.org/cc/"
   xmlns:rdf="http://www.w3.org/1999/02/22-rdf-syntax-ns#"
   xmlns:svg="http://www.w3.org/2000/svg"
   xmlns="http://www.w3.org/2000/svg"
   xmlns:sodipodi="http://sodipodi.sourceforge.net/DTD/sodipodi-0.dtd"
   xmlns:inkscape="http://www.inkscape.org/namespaces/inkscape"
   version="1.0"
   width="200"
   height="200"
   id="svg2"
   sodipodi:version="0.32"
   inkscape:version="0.45.1"
   sodipodi:docname="Symbol_unsupport_star_gold.svg"
   inkscape:output_extension="org.inkscape.output.svg.inkscape"
   sodipodi:docbase="C:\Documents and Settings\Thure\Desktop">
  <metadata
     id="metadata12">
    <rdf:RDF>
      <cc:Work
         rdf:about="">
        <dc:format>image/svg+xml</dc:format>
        <dc:type
           rdf:resource="http://purl.org/dc/dcmitype/StillImage" />
      </cc:Work>
    </rdf:RDF>
  </metadata>
  <sodipodi:namedview
     inkscape:window-height="994"
     inkscape:window-width="1680"
     inkscape:pageshadow="2"
     inkscape:pageopacity="0.0"
     guidetolerance="10.0"
     gridtolerance="10.0"
     objecttolerance="10.0"
     borderopacity="1.0"
     bordercolor="#666666"
     pagecolor="#ffffff"
     id="base"
     inkscape:zoom="16"
     inkscape:cx="151.70577"
     inkscape:cy="114.32849"
     inkscape:window-x="-4"
     inkscape:window-y="-4"
     inkscape:current-layer="svg2"
     showguides="true"
     showgrid="false" />
  <defs
     id="defs4" />
  <path
     d="M 156.08386,43.708463 L 156.36511,61.802213 L 152.14636,63.552213 L 152.14636,63.583463 L 120.77136,76.989713 L 117.92761,112.08347 L 83.771351,120.14597 L 79.990101,157.64597 L 59.615101,158.80222 L 59.365101,158.80222 L 39.302601,159.95847 C 56.527512,185.95877 86.019104,201.26186 116.99011,196.89597 C 161.21227,190.66212 191.61016,146.78042 184.89636,98.864713 C 181.76355,76.506164 171.05902,57.284329 156.08386,43.708463 z "
     style="fill:#000000;fill-opacity:0.19607843;fill-rule:evenodd"
     id="path3151" />
  <path
     d="M 79.918672,3.5504658 C 79.597483,3.5560848 79.27168,3.5719152 78.949922,3.5817158 C 76.21666,3.6649694 73.463806,3.91085 70.699922,4.3004658 C 26.477771,10.534318 -3.9201215,54.416021 2.7936724,102.33172 C 4.8054594,116.68964 9.9551261,129.73856 17.324922,140.86297 L 37.356172,139.73797 L 37.668672,139.70672 L 58.012422,138.55047 L 61.793672,101.05047 L 95.949922,92.987966 L 98.793672,57.894216 L 130.26243,44.456716 C 130.23715,44.426885 130.22525,44.392749 130.19993,44.362966 L 134.38743,42.706716 L 134.10618,24.612966 C 119.2306,11.127367 100.15359,3.1964689 79.918672,3.5504658 z "
     style="fill:#000000;fill-opacity:0.19607843;fill-rule:evenodd"
     id="path3153" />
  <path
     d="M 168.37152,41.770177 L 168.65277,59.863927 L 164.42102,61.634529 L 143.18587,160.97404 L 71.649286,156.88166 L 51.590267,158.02018 C 68.815178,184.02048 98.306766,199.32357 129.27777,194.95768 C 173.49993,188.72383 203.89782,144.84213 197.18402,96.926427 C 194.05121,74.567881 183.34668,55.346043 168.37152,41.770177 z "
     style="fill:#eecc33;fill-opacity:1;fill-rule:evenodd"
     id="path1363" />
  <path
     d="M 91.233581,1.6594551 C 88.500317,1.7427087 85.747465,1.9885893 82.983581,2.3782051 C 38.761428,8.6120571 8.3635372,52.493765 15.077331,100.40946 C 17.089118,114.76738 22.238785,127.8163 29.608581,138.94071 L 49.952331,137.78446 L 59.626238,58.509225 L 142.33411,42.508229 L 146.67108,40.784455 L 146.38983,22.690705 C 131.27812,8.9910481 111.8261,1.0322193 91.233581,1.6594551 z "
     style="fill:#eecc33;fill-opacity:1;fill-rule:evenodd"
     id="path1306" />
  <path
     d="M 142.54608,42.534455 C 128.44789,25.897469 107.39066,16.624974 85.421081,19.721955 C 50.043343,24.709043 25.706297,59.826899 31.077331,98.159455 C 33.257646,113.72016 40.036337,127.36535 49.639831,137.81571 L 70.296081,136.62821 L 74.077331,99.128205 L 108.23358,91.065705 L 111.07733,55.971955 L 142.54608,42.534455 z "
     style="fill:#ffc;fill-opacity:1;fill-rule:evenodd"
     id="path1366" />
  <path
     d="M 164.52777,61.613927 L 133.05902,75.051427 L 130.21527,110.14518 L 96.059016,118.20768 L 92.277766,155.70768 L 71.621517,156.89518 C 85.675472,172.18846 105.82376,180.57656 126.84027,177.61393 C 162.218,172.62684 186.55505,137.50898 181.18402,99.176427 C 179.1484,84.648396 173.13197,71.767573 164.52777,61.613927 z "
     style="fill:#ffc;fill-opacity:1;fill-rule:evenodd"
     id="path1308" />
  <path
     d="M 69.965828,136.64722 L 70.48259,104.93723 L 39.288986,80.216454 L 75.945663,69.023825 L 87.50099,29.805646 L 109.48272,64.240727 L 110.40782,64.25261 L 108.23358,91.065705 L 74.077331,99.128205 L 70.296081,136.62821 L 69.965828,136.64722 z "
     style="fill:#eecc33"
     id="4" />
  <path
     d="M 91.938769,155.7237 L 92.269022,155.70469 L 96.050272,118.20468 L 130.20652,110.14218 L 132.38076,83.329088 L 169.78675,83.79628 L 146.71092,116.36635 L 158.84438,155.95857 L 122.60205,141.63112 L 91.768801,165.55477 L 91.938769,155.7237 z "
     style="fill:#eecc33"
     id="5" />
</svg>
